<?xml version="1.0" standalone="no"?><!DOCTYPE svg PUBLIC "-//W3C//DTD SVG 1.1//EN" "http://www.w3.org/Graphics/SVG/1.1/DTD/svg11.dtd"><svg xmlns="http://www.w3.org/2000/svg" width="1200" height="600" viewBox="0 0 1200 600"><g class="sankey" transform="translate(120,30)"><g class="groups"><g class="group" style="display: inline;" transform="translate(959,178.7058297979632)"><rect x="-10" y="-20" width="21" height="364.2941702020369" style="fill: rgb(238, 238, 238); stroke: rgb(187, 187, 187); stroke-width: 0.5px;"/><text x="-10" y="-25" style="fill: rgb(153, 153, 153);">By-Products</text></g></g><g class="links"><g class="link" style="opacity: 0.8;"><path d="M480.5,345.7009487946854 A232.46896428447116 232.46896428447116 0.41046030762573626 0 1 573.262426375454,365.01046194354956 L867.0356365114435,492.854269155194 A230.46896428447116 230.46896428447116 0.41046030762573626 0 0 959,511.9976567895552 L959,513.9976567895552 A232.46896428447116 232.46896428447116 0.41046030762573626 0 1 866.237573624546,494.68814364069107 L572.4643634885565,366.8443364290466 A230.46896428447116 230.46896428447116 0.41046030762573626 0 0 480.5,347.7009487946854 Z" style="fill: rgb(255, 152, 150);"/><title>Alumina Production → Suspended solids
y
50.0m</title></g><g class="link" style="opacity: 0.8;"><path d="M1,511.9953135791102 A413.5131578947363 413.5131578947363 0.21672621165713046 0 0 89.9192137419456,502.3218580163651 L390.150719102781,436.2155558299112 A415.5131578947363 415.5131578947363 0.21672621165713046 0 1 479.5,426.4953135791101 L479.5,428.4953135791101 A413.5131578947363 413.5131578947363 0.21672621165713046 0 0 390.5807862580544,438.16876914185514 L90.34928089721895,504.2750713283091 A415.5131578947363 415.5131578947363 0.21672621165713046 0 1 1,513.9953135791102 Z" style="fill: rgb(255, 152, 150);"/><title>Sea water → Alumina Production
y
100m</title></g><g class="link" style="opacity: 0.8;"><path d="M480.5,238.3341089222876 A430.33467039720364 430.33467039720364 0.2089273947014063 0 1 569.7560320006381,247.69218935590317 L870.1587894773444,311.3839925907101 A428.33467039720364 428.33467039720364 0.2089273947014063 0 0 959,320.69858091886744 L959,322.69858091886744 A430.33467039720364 430.33467039720364 0.2089273947014063 0 1 869.7439679993619,313.3405004852519 L569.3412105226556,249.64869725044497 A428.33467039720364 428.33467039720364 0.2089273947014063 0 0 480.5,240.3341089222876 Z" style="fill: rgb(44, 160, 44);"/><title>Alumina Production → Particulates
b
170m</title></g><g class="link" style="opacity: 0.8;"><path d="M480.5,235.43602624395697 A999 999 0.0032991488117299905 0 0 483.79584368403994,235.4305894996387 L955.6975580303064,233.87370987093814 A1001 1001 0.0032991488117299905 0 1 959,233.86826224224686 L959,235.86826224224686 A999 999 0.0032991488117299905 0 0 955.7041563159602,235.87369898656513 L483.80244196969363,237.4305786152657 A1001 1001 0.0032991488117299905 0 1 480.5,237.43602624395697 Z" style="fill: rgb(255, 152, 150);"/><title>Alumina Production → Oil and grease
y
470m</title></g><g class="link" style="opacity: 0.8;"><path d="M1,398.13162147813716 A1001 1001 0.02704912535610582 0 1 28.072872865016066,398.49779257026205 L452.4812187890599,409.9804677108716 A999 999 0.02704912535610582 0 0 479.5,410.3459071924228 L479.5,412.3459071924228 A1001 1001 0.02704912535610582 0 1 452.42712713498395,411.97973610029794 L28.018781210940112,400.4970609596884 A999 999 0.02704912535610582 0 0 1,400.13162147813716 Z" style="fill: rgb(148, 103, 189);"/><title>Diesel oil → Alumina Production
z
700m</title></g><g class="link" style="opacity: 0.8;"><path d="M480.5,235.37275956194296 A999 999 0.07268138625950105 0 0 553.0447948267552,232.73527026953877 L886.3099703487669,208.4703531120507 A1001 1001 0.07268138625950105 0 1 959,205.82758356080288 L959,207.82758356080288 A999 999 0.07268138625950105 0 0 886.4552051732448,210.46507285320706 L553.1900296512331,234.72999001069513 A1001 1001 0.07268138625950105 0 1 480.5,237.37275956194296 Z" style="fill: rgb(44, 160, 44);"/><title>Alumina Production → NO2
b
880m</title></g><g class="link" style="opacity: 0.8;"><path d="M480.5,235.27996842832243 A604.6866690211718 604.6866690211718 0.14660760956493402 0 0 568.8344314660701,228.79309538629198 L870.3734025709889,184.26570878994903 A606.6866690211718 606.6866690211718 0.14660760956493402 0 1 959,177.7573804277524 L959,179.7573804277524 A604.6866690211718 604.6866690211718 0.14660760956493402 0 0 870.6655685339299,186.24425346978285 L569.1265974290111,230.7716400661258 A606.6866690211718 606.6866690211718 0.14660760956493402 0 1 480.5,237.27996842832243 Z" style="fill: rgb(197, 176, 213);"/><title>Alumina Production → Bauxite residue
waste
1.10</title></g><g class="link" style="opacity: 0.8;"><path d="M480.5,345.53926727398294 A270.0454096001763 270.0454096001763 0.34515407137641185 0 1 571.8676137861096,361.46564492818453 L868.3090695459373,468.050138945202 A268.0454096001763 268.0454096001763 0.34515407137641185 0 0 959,483.8585632694227 L959,485.8585632694227 A270.0454096001763 270.0454096001763 0.34515407137641185 0 1 867.6323862138904,469.9321856152211 L571.1909304540627,363.34769159820365 A268.0454096001763 268.0454096001763 0.34515407137641185 0 0 480.5,347.53926727398294 Z" style="fill: rgb(44, 160, 44);"/><title>Alumina Production → SO2
b
3.40</title></g><g class="link" style="opacity: 0.8;"><path d="M480.5,235.72049199197554 A1001 1001 0.06356524599187607 0 1 544.0859707622766,237.74210167403734 L895.5410741343513,260.1125694878175 A999 999 0.06356524599187607 0 0 959,262.1301399896954 L959,264.1301399896954 A1001 1001 0.06356524599187607 0 1 895.4140292377234,262.1085303076336 L543.9589258656487,239.7380624938534 A999 999 0.06356524599187607 0 0 480.5,237.72049199197554 Z" style="fill: rgb(197, 176, 213);"/><title>Alumina Production → Other_byproduct
waste
5.60</title></g><g class="link" style="opacity: 0.8;"><path d="M1,422.95385226146243 A999 999 0.02704912535610582 0 0 28.018781210940112,422.5884127799112 L452.42712713498395,411.10573763930154 A1001 1001 0.02704912535610582 0 1 479.5,410.73956654717665 L479.5,412.73956654717665 A999 999 0.02704912535610582 0 0 452.4812187890599,413.10500602872787 L28.072872865016066,424.58768116933754 A1001 1001 0.02704912535610582 0 1 1,424.95385226146243 Z" style="fill: rgb(255, 152, 150);"/><title>Fresh water → Alumina Production
y
7.70</title></g><g class="link" style="opacity: 0.8;"><path d="M480.5,236.98293156181143 A640.8096063590224 640.8096063590224 0.1386830596028068 0 1 569.0848398064761,243.1354039039962 L870.7390831182743,285.2400165971396 A638.4663959140591 638.4663959140591 0.1386830596028068 0 0 959,291.36999155896126 L959,293.7132020039246 A640.8096063590224 640.8096063590224 0.1386830596028068 0 1 870.4151601935239,287.5607296617398 L568.7609168817257,245.4561169685965 A638.4663959140591 638.4663959140591 0.1386830596028068 0 0 480.5,239.32614200677477 Z" style="fill: rgb(197, 176, 213);"/><title>Alumina Production → Other_landfill
waste
25.0</title></g><g class="link" style="opacity: 0.8;"><path d="M1,338.150707778754 A573.3987036943166 573.3987036943166 0.15556251982799307 0 1 89.84001606931521,345.0747651356317 L391.24085961733874,392.3433515714691 A569.6495669823754 569.6495669823754 0.15556251982799307 0 0 479.5,399.22213635018255 L479.5,402.9712730621239 A573.3987036943166 573.3987036943166 0.15556251982799307 0 1 390.6599839306848,396.0472157052462 L89.25914038266124,348.7786292694088 A569.6495669823754 569.6495669823754 0.15556251982799307 0 0 1,341.89984449069533 Z" style="fill: rgb(214, 39, 40);"/><title>Calcinated lime → Alumina Production
x
40.0</title></g><g class="link" style="opacity: 0.8;"><path d="M1,482.6759110919009 A568.5810630194715 568.5810630194715 0.15556251982799396 0 0 89.09359081196527,475.81002899796414 L390.494434359988,428.5414425621268 A574.4672076572194 574.4672076572194 0.15556251982799396 0 1 479.5,421.6044825204723 L479.5,427.49062715822015 A568.5810630194715 568.5810630194715 0.15556251982799396 0 0 391.40640918803473,434.3565092521569 L90.00556564001201,481.62509568799425 A574.4672076572194 574.4672076572194 0.15556251982799396 0 1 1,488.56205572964876 Z" style="fill: rgb(152, 223, 138);"/><title>Natural gas → Alumina Production
c
62.8</title></g><g class="link" style="opacity: 0.8;"><path d="M1,366.3284159192668 A946.9397115845167 946.9397115845167 0.0936453314379091 0 1 89.54693265764095,370.4774518537265 L391.73309945841356,398.858787024791 A938.5978824004472 938.5978824004472 0.0936453314379091 0 0 479.5,402.9712730621239 L479.5,411.3131022461933 A946.9397115845167 946.9397115845167 0.0936453314379091 0 1 390.9530673423591,407.16406631173356 L88.76690054158641,378.78273114066906 A938.5978824004472 938.5978824004472 0.0936453314379091 0 0 1,374.6702451033362 Z" style="fill: rgb(214, 39, 40);"/><title>Caustic soda → Alumina Production
x
89.0</title></g><g class="link" style="opacity: 0.8;"><path d="M1,448.7432780985582 A938.0167662100935 938.0167662100935 0.09364533143790932 0 0 88.71256122563649,444.6333382338343 L390.89872802640923,416.2520030627696 A947.5208277748648 947.5208277748648 0.09364533143790932 0 1 479.5,412.100420955701 L479.5,421.6044825204723 A938.0167662100935 938.0167662100935 0.09364533143790932 0 0 391.7874387743635,425.7144223851962 L89.60127197359076,454.09575755626093 A947.5208277748648 947.5208277748648 0.09364533143790932 0 1 1,458.2473396633295 Z" style="fill: rgb(148, 103, 189);"/><title>Heavy oil → Alumina Production
z
101</title></g><g class="link" style="opacity: 0.8;"><path d="M480.5,142.5 A367.6489489954703 367.6489489954703 0.21672621165713046 0 0 559.5568688168605,133.8994616546085 L859.7883741776957,67.79315946815468 A461.3773667940035 461.3773667940035 0.21672621165713046 0 1 959,57 L959,150.72841779853323 A367.6489489954703 367.6489489954703 0.21672621165713046 0 0 879.9431311831395,159.3289561439247 L579.7116258223043,225.43525833037853 A461.3773667940035 461.3773667940035 0.21672621165713046 0 1 480.5,236.2284177985332 Z" style="fill: rgb(255, 127, 14);"/><title>Alumina Production → Alumina
1.00k</title></g><g class="link" style="opacity: 0.8;"><path d="M480.5,239.3420758378005 A381.3240708531972 381.3240708531972 0.27787315691702386 0 1 585.1013913760559,253.96927469145726 L883.7602703250435,339.16262284992297 A274.2862177272723 274.2862177272723 0.27787315691702386 0 0 959,349.68395983381026 L959,456.7218129597352 A381.3240708531972 381.3240708531972 0.27787315691702386 0 1 854.3986086239441,442.09461410607844 L555.7397296749565,356.9012659476127 A274.2862177272723 274.2862177272723 0.27787315691702386 0 0 480.5,346.37992896372543 Z" style="fill: rgb(197, 176, 213);"/><title>Alumina Production → Red mud
waste
1.14k</title></g><g class="link" style="opacity: 0.8;"><path d="M1,57 A542.874226069828 542.874226069828 0.21672621165713046 0 1 117.73618703853774,69.6996435343973 L417.96769239937305,135.80594572085116 A286.15208971964535 286.15208971964535 0.21672621165713046 0 0 479.5,142.50000000000003 L479.5,399.2221363501826 A542.874226069828 542.874226069828 0.21672621165713046 0 1 362.76381296146224,386.5224928157853 L62.53230760062696,320.4161906293314 A286.15208971964535 286.15208971964535 0.21672621165713046 0 0 1,313.72213635018255 Z" style="fill: rgb(218, 165, 32);"/><title>Bauxite → Alumina Production
2.74k</title></g></g><g class="nodes"><g class="node" transform="translate(959,57)"><title>Alumina</title><text dy=".35em" text-anchor="start" transform="translate(4,46.864208899266615)" style="display: inline;">Alumina</text><line x1="0" x2="0" y1="0" y2="93.72841779853323" style="display: inline; stroke: rgb(0, 0, 0);"/><rect x="-5" y="-5" width="10" style="fill: none; visibility: hidden; pointer-events: all;" height="98.72841779853323"/></g><g class="node" transform="translate(959,206.78634305697153)"><title>NO2</title><text dy=".35em" text-anchor="start" transform="translate(4,0.0412405038313608)" style="display: inline;">NO2</text><line x1="0" x2="0" y1="0" y2="1" style="display: inline; stroke: rgb(0, 0, 0);"/><rect x="-5" y="-5" width="10" style="fill: none; visibility: hidden; pointer-events: all;" height="6"/></g><g class="node" transform="translate(959,291.36999155896126)"><title>Other_landfill</title><text dy=".35em" text-anchor="start" transform="translate(4,1.1716052224816735)" style="display: inline;">Other_landfill</text><line x1="0" x2="0" y1="0" y2="2.343210444963347" style="display: inline; stroke: rgb(0, 0, 0);"/><rect x="-5" y="-5" width="10" style="fill: none; visibility: hidden; pointer-events: all;" height="7.343210444963347"/></g><g class="node" transform="translate(0,399.0988165319077)"><title>Diesel oil</title><text dy=".35em" text-anchor="end" transform="translate(-4,0.03280494622947572)" style="display: inline;">Diesel oil</text><line x1="0" x2="0" y1="0" y2="1" style="display: inline; stroke: rgb(0, 0, 0);"/><rect x="-5" y="-5" width="10" style="fill: none; visibility: hidden; pointer-events: all;" height="6"/></g><g class="node" transform="translate(0,512.9906271582203)"><title>Sea water</title><text dy=".35em" text-anchor="end" transform="translate(-4,0.0046864208899251025)" style="display: inline;">Sea water</text><line x1="0" x2="0" y1="0" y2="1" style="display: inline; stroke: rgb(0, 0, 0);"/><rect x="-5" y="-5" width="10" style="fill: none; visibility: hidden; pointer-events: all;" height="6"/></g><g class="node" transform="translate(959,512.9953135791102)"><title>Suspended solids</title><text dy=".35em" text-anchor="start" transform="translate(4,0.0023432104449625513)" style="display: inline;">Suspended solids</text><line x1="0" x2="0" y1="0" y2="1" style="display: inline; stroke: rgb(0, 0, 0);"/><rect x="-5" y="-5" width="10" style="fill: none; visibility: hidden; pointer-events: all;" height="6"/></g><g class="node" transform="translate(959,262.8677004198595)"><title>Other_byproduct</title><text dy=".35em" text-anchor="start" transform="translate(4,0.262439569835891)" style="display: inline;">Other_byproduct</text><line x1="0" x2="0" y1="0" y2="1" style="display: inline; stroke: rgb(0, 0, 0);"/><rect x="-5" y="-5" width="10" style="fill: none; visibility: hidden; pointer-events: all;" height="6"/></g><g class="node" transform="translate(959,349.68395983381026)"><title>Red mud</title><text dy=".35em" text-anchor="start" transform="translate(4,53.51892656296246)" style="display: inline;">Red mud</text><line x1="0" x2="0" y1="0" y2="107.03785312592493" style="display: inline; stroke: rgb(0, 0, 0);"/><rect x="-5" y="-5" width="10" style="fill: none; visibility: hidden; pointer-events: all;" height="112.03785312592493"/></g><g class="node" transform="translate(0,338.150707778754)"><title>Calcinated lime</title><text dy=".35em" text-anchor="end" transform="translate(-4,1.8745683559706663)" style="display: inline;">Calcinated lime</text><line x1="0" x2="0" y1="0" y2="3.7491367119413326" style="display: inline; stroke: rgb(0, 0, 0);"/><rect x="-5" y="-5" width="10" style="fill: none; visibility: hidden; pointer-events: all;" height="8.749136711941333"/></g><g class="node" transform="translate(0,57)"><title>Bauxite</title><text dy=".35em" text-anchor="end" transform="translate(-4,128.36106817509128)" style="display: inline;">Bauxite</text><line x1="0" x2="0" y1="0" y2="256.72213635018255" style="display: inline; stroke: rgb(0, 0, 0);"/><rect x="-5" y="-5" width="10" style="fill: none; visibility: hidden; pointer-events: all;" height="261.72213635018255"/></g><g class="node" transform="translate(0,448.7432780985582)"><title>Heavy oil</title><text dy=".35em" text-anchor="end" transform="translate(-4,4.752030782385646)" style="display: inline;">Heavy oil</text><line x1="0" x2="0" y1="0" y2="9.504061564771291" style="display: inline; stroke: rgb(0, 0, 0);"/><rect x="-5" y="-5" width="10" style="fill: none; visibility: hidden; pointer-events: all;" height="14.504061564771291"/></g><g class="node" transform="translate(959,321.69061400335454)"><title>Particulates</title><text dy=".35em" text-anchor="start" transform="translate(4,0.00796691551286699)" style="display: inline;">Particulates</text><line x1="0" x2="0" y1="0" y2="1" style="display: inline; stroke: rgb(0, 0, 0);"/><rect x="-5" y="-5" width="10" style="fill: none; visibility: hidden; pointer-events: all;" height="6"/></g><g class="node" transform="translate(959,234.84623606406421)"><title>Oil and grease</title><text dy=".35em" text-anchor="start" transform="translate(4,0.02202617818265651)" style="display: inline;">Oil and grease</text><line x1="0" x2="0" y1="0" y2="1" style="display: inline; stroke: rgb(0, 0, 0);"/><rect x="-5" y="-5" width="10" style="fill: none; visibility: hidden; pointer-events: all;" height="6"/></g><g class="node" transform="translate(0,423.5929978529381)"><title>Fresh water</title><text dy=".35em" text-anchor="end" transform="translate(-4,0.3608544085243466)" style="display: inline;">Fresh water</text><line x1="0" x2="0" y1="0" y2="1" style="display: inline; stroke: rgb(0, 0, 0);"/><rect x="-5" y="-5" width="10" style="fill: none; visibility: hidden; pointer-events: all;" height="6"/></g><g class="node" transform="translate(479.5,142.5)"><title>Alumina Production</title><text dy=".35em" text-anchor="start" transform="translate(-4,-10)" style="display: inline;">Alumina Production</text><line x1="0" x2="0" y1="-5" y2="285" style="display: inline; stroke: rgb(0, 0, 0);"/><rect x="-5" y="-5" width="10" style="fill: none; visibility: hidden; pointer-events: all;" height="290"/></g><g class="node" transform="translate(0,482.6759110919009)"><title>Natural gas</title><text dy=".35em" text-anchor="end" transform="translate(-4,2.9430723188739307)" style="display: inline;">Natural gas</text><line x1="0" x2="0" y1="0" y2="5.8861446377478615" style="display: inline; stroke: rgb(0, 0, 0);"/><rect x="-5" y="-5" width="10" style="fill: none; visibility: hidden; pointer-events: all;" height="10.886144637747861"/></g><g class="node" transform="translate(959,484.6992249591652)"><title>SO2</title><text dy=".35em" text-anchor="start" transform="translate(4,0.15933831025751033)" style="display: inline;">SO2</text><line x1="0" x2="0" y1="0" y2="1" style="display: inline; stroke: rgb(0, 0, 0);"/><rect x="-5" y="-5" width="10" style="fill: none; visibility: hidden; pointer-events: all;" height="6"/></g><g class="node" transform="translate(0,366.3284159192668)"><title>Caustic soda</title><text dy=".35em" text-anchor="end" transform="translate(-4,4.170914592034734)" style="display: inline;">Caustic soda</text><line x1="0" x2="0" y1="0" y2="8.341829184069468" style="display: inline; stroke: rgb(0, 0, 0);"/><rect x="-5" y="-5" width="10" style="fill: none; visibility: hidden; pointer-events: all;" height="13.341829184069468"/></g><g class="node" transform="translate(959,178.7058297979632)"><title>Bauxite residue</title><text dy=".35em" text-anchor="start" transform="translate(4,0.05155062978919034)" style="display: inline;">Bauxite residue</text><line x1="0" x2="0" y1="0" y2="1" style="display: inline; stroke: rgb(0, 0, 0);"/><rect x="-5" y="-5" width="10" style="fill: none; visibility: hidden; pointer-events: all;" height="6"/></g></g><g class="slice-titles"/></g></svg>