<?xml version="1.0" standalone="no"?><!DOCTYPE svg PUBLIC "-//W3C//DTD SVG 1.1//EN" "http://www.w3.org/Graphics/SVG/1.1/DTD/svg11.dtd"><svg xmlns="http://www.w3.org/2000/svg" width="600" height="400" viewBox="0 0 600 400"><g class="sankey" transform="translate(100,10)"><g class="groups"/><g class="links"><g class="link" style="opacity: 0.8;"><path d="M1,95 A22.735964912280696 22.735964912280696 0.4980118637310045 0 0 11.860512047993033,92.23835306225494 L92.38643151213284,48.454494227578536 A86.06929824561404 86.06929824561404 0.4980118637310045 0 1 133.5,38 L133.5,101.33333333333334 A22.735964912280696 22.735964912280696 0.4980118637310045 0 0 122.63948795200696,104.0949802710784 L42.11356848786715,147.87883910575482 A86.06929824561404 86.06929824561404 0.4980118637310045 0 1 1,158.33333333333334 ZM133.5,38 A86.06929824561404 86.06929824561404 0.4980118637310045 0 1 174.61356848786716,48.454494227578536 L255.13948795200696,92.23835306225494 A22.735964912280696 22.735964912280696 0.4980118637310045 0 0 266,95 L266,158.33333333333334 A86.06929824561404 86.06929824561404 0.4980118637310045 0 1 224.88643151213284,147.87883910575482 L144.36051204799304,104.0949802710784 A22.735964912280696 22.735964912280696 0.4980118637310045 0 0 133.5,101.33333333333334 Z" style="fill: rgb(255, 152, 150);"/><title>a → c
main
1.00</title></g><g class="link" style="opacity: 0.8;"><path d="M1,158.33333333333334 A126.66666666666667 126.66666666666667 0.5278095962427092 0 1 64.7946829893221,175.57110588726422 L133,215.33333333333334 A0 0 0.5278095962427092 0 0 133,215.33333333333334 L133,342 A126.66666666666667 126.66666666666667 0.5278095962427092 0 1 69.2053170106779,324.7622274460691 L0.9999999999999964,285 A0 0 0.5278095962427092 0 0 1,285 Z" style="fill: rgb(255, 152, 150);"/><title>a → b
main
2.00</title></g><g class="link" style="opacity: 0.8;"><path d="M134,215.33333333333334 A0 0 0.5278095962427092 0 0 134,215.33333333333334 L202.2053170106779,175.57110588726422 A126.66666666666667 126.66666666666667 0.5278095962427092 0 1 266,158.33333333333334 L266,285 A0 0 0.5278095962427092 0 0 266,285 L197.7946829893221,324.7622274460691 A126.66666666666667 126.66666666666667 0.5278095962427092 0 1 134,342 Z" style="fill: rgb(148, 103, 189);"/><title>b → c
back
2.00</title></g><g class="link" style="opacity: 0.8;"><path d="M267,95 A0 0 0 0 0 267,95 L399,95 A0 0 0 0 0 399,95 L399,285 A0 0 0 0 0 399,285 L267,285 A0 0 0 0 0 267,285 Z" style="fill: rgb(255, 152, 150);"/><title>c → d
main
3.00</title></g></g><g class="nodes"><g class="node" transform="translate(133,215.33333333333334)"><title>b</title><text dy=".35em" text-anchor="start" transform="translate(-4,-10)" style="display: inline;">b</text><line x1="0" x2="0" y1="-5" y2="126.66666666666666" style="display: inline; stroke: rgb(0, 0, 0);"/><rect x="-5" y="-5" width="10" style="fill: none; visibility: hidden; pointer-events: all;" height="131.66666666666666"/></g><g class="node" transform="translate(266,95)"><title>c</title><text dy=".35em" text-anchor="start" transform="translate(-4,-10)" style="display: inline;">c</text><line x1="0" x2="0" y1="-5" y2="190" style="display: inline; stroke: rgb(0, 0, 0);"/><rect x="-5" y="-5" width="10" style="fill: none; visibility: hidden; pointer-events: all;" height="195"/></g><g class="node" transform="translate(399,95)"><title>d</title><text dy=".35em" text-anchor="start" transform="translate(4,95)" style="display: inline;">d</text><line x1="0" x2="0" y1="0" y2="190" style="display: inline; stroke: rgb(0, 0, 0);"/><rect x="-5" y="-5" width="10" style="fill: none; visibility: hidden; pointer-events: all;" height="195"/></g><g class="node" transform="translate(0,95)"><title>a</title><text dy=".35em" text-anchor="end" transform="translate(-4,95)" style="display: inline;">a</text><line x1="0" x2="0" y1="0" y2="190" style="display: inline; stroke: rgb(0, 0, 0);"/><rect x="-5" y="-5" width="10" style="fill: none; visibility: hidden; pointer-events: all;" height="195"/></g></g><g class="slice-titles"/></g></svg>